<svg width="180" height="39" fill="none" xmlns="http://www.w3.org/2000/svg"><g clip-path="url(#a)"><path d="M17.91 13.887a3.085 3.085 0 0 0 2.37-.096 3.084 3.084 0 0 0 1.606-1.743 3.066 3.066 0 0 0-.1-2.37 3.084 3.084 0 0 0-1.744-1.606 3.087 3.087 0 0 0-3.977 1.84 3.098 3.098 0 0 0 1.845 3.975Zm.004-3.299a1.127 1.127 0 0 1 2.082-.087 1.127 1.127 0 0 1-1.034 1.601 1.128 1.128 0 0 1-1.048-1.514ZM28.69 22.37l-2.965-6.607a.98.98 0 0 0-.888-.58l-11.805-.129a.984.984 0 0 0-.902.563l-3.107 6.539a.996.996 0 0 0 .055.947c.842 1.4 2.274 2.242 3.844 2.26 1.57.019 3.024-.8 3.894-2.187a.994.994 0 0 0 .023-1.025l-1.78-3.06a.998.998 0 0 0-.842-.49.987.987 0 0 0-.86 1.478l1.45 2.493a2.498 2.498 0 0 1-1.862.82 2.48 2.48 0 0 1-1.89-.911l2.59-5.45 4.287.046-.114 10.862-.8-.009a.598.598 0 0 0-.605.59l-.009.779c-.005.329.26.599.59.604l3.574.036c.33.005.604-.26.604-.595l.01-.773a.596.596 0 0 0-.596-.604l-.796-.01.114-10.862 4.288.046 2.47 5.504a2.504 2.504 0 0 1-1.907.87 2.491 2.491 0 0 1-1.844-.856l1.505-2.462a.984.984 0 0 0-.33-1.354 1.022 1.022 0 0 0-.503-.146.986.986 0 0 0-.85.47l-1.845 3.02a.983.983 0 0 0 0 1.026c.842 1.404 2.279 2.256 3.848 2.27 1.565.018 3.02-.797 3.89-2.179.165-.27.201-.627.064-.933Z" fill="#384765"/><path opacity=".1" d="M5.705 33.014a18.76 18.76 0 0 0 3.848 2.796.602.602 0 0 0 .824-.261l1.308-2.576a.602.602 0 0 0-.251-.796 14.803 14.803 0 0 1-2.855-2.087.595.595 0 0 0-.833.01l-2.05 2.045a.61.61 0 0 0 .009.869Z" fill="#10997F"/><path opacity=".2" d="M.009 22.686c.302 1.56.791 3.08 1.473 4.521a.604.604 0 0 0 .82.275l2.58-1.318a.6.6 0 0 0 .265-.792 14.894 14.894 0 0 1-1.103-3.358.598.598 0 0 0-.677-.485l-2.855.453a.608.608 0 0 0-.503.704Z" fill="#10997F"/><path opacity=".3" d="M4.882 11.993 2.31 10.68a.6.6 0 0 0-.819.275A19.05 19.05 0 0 0 .018 15.47c-.064.33.164.65.494.704.842.138 2.347.38 3.047.49.21.032.403-.11.444-.32a14.85 14.85 0 0 1 1.14-3.56.593.593 0 0 0-.261-.792Z" fill="#10997F"/><path opacity=".4" d="m11.704 5.202-1.313-2.58a.604.604 0 0 0-.824-.261 19.14 19.14 0 0 0-3.843 2.782.605.605 0 0 0-.01.865L7.76 8.062a.6.6 0 0 0 .833.01c.869-.801 1.83-1.497 2.86-2.073a.602.602 0 0 0 .251-.797Z" fill="#10997F"/><path opacity=".5" d="M21.199.151a18.965 18.965 0 0 0-4.75-.01.602.602 0 0 0-.512.696l.448 2.856c.05.32.348.535.668.498a14.953 14.953 0 0 1 3.533 0 .598.598 0 0 0 .668-.494l.453-2.85a.601.601 0 0 0-.508-.696Z" fill="#10997F"/><path opacity=".6" d="M31.829 5.175a18.92 18.92 0 0 0-3.844-2.8.601.601 0 0 0-.824.26l-1.313 2.572a.605.605 0 0 0 .247.796c1.039.586 1.99 1.29 2.85 2.087a.6.6 0 0 0 .834-.005l2.05-2.045a.605.605 0 0 0 0-.865Z" fill="#10997F"/><path opacity=".7" d="M37.511 15.507a19 19 0 0 0-1.469-4.52.604.604 0 0 0-.819-.275l-2.58 1.313a.6.6 0 0 0-.266.792 14.885 14.885 0 0 1 1.098 3.358c.064.32.357.535.678.485l2.855-.448a.605.605 0 0 0 .503-.705Z" fill="#10997F"/><path opacity=".8" d="m32.643 26.169 2.576 1.313a.604.604 0 0 0 .819-.274 19.098 19.098 0 0 0 1.464-4.498.602.602 0 0 0-.499-.705c-.842-.137-2.347-.38-3.047-.49a.393.393 0 0 0-.444.32 14.975 14.975 0 0 1-1.135 3.542.6.6 0 0 0 .266.792Z" fill="#10997F"/><path opacity=".9" d="m25.825 32.968 1.317 2.58a.604.604 0 0 0 .824.262 19.184 19.184 0 0 0 3.84-2.787.605.605 0 0 0 .008-.865l-2.045-2.05a.6.6 0 0 0-.833-.009 15 15 0 0 1-2.86 2.073.602.602 0 0 0-.251.796Z" fill="#10997F"/><path d="M16.43 38.025c1.584.2 3.176.2 4.75.004a.602.602 0 0 0 .513-.695l-.453-2.856a.602.602 0 0 0-.668-.498 14.946 14.946 0 0 1-3.533.004.598.598 0 0 0-.668.494l-.453 2.851a.603.603 0 0 0 .513.696Z" fill="#10997F"/><path d="M51.696 8.058c0-.865.7-1.56 1.56-1.56h8.937c1.99 0 3.665.356 5.01 1.075 1.35.718 2.357 1.684 3.025 2.896.668 1.217 1.002 2.576 1.002 4.082 0 1.505-.334 2.869-1.002 4.081-.668 1.217-1.68 2.183-3.025 2.897-1.35.718-3.02 1.075-5.01 1.075h-7.29v9.925a.21.21 0 0 1-.21.21h-1.436c-.865 0-1.56-.7-1.56-1.56V8.058Zm10.497 11.631c1.917 0 3.354-.466 4.301-1.404.947-.934 1.423-2.183 1.423-3.734 0-1.551-.476-2.8-1.423-3.739-.947-.933-2.384-1.404-4.301-1.404h-7.29v10.277h7.29v.004ZM92.242 31.902c-1.336-.851-2.37-2.027-3.098-3.537-.727-1.506-1.093-3.208-1.093-5.102 0-1.895.366-3.597 1.093-5.102.728-1.506 1.762-2.686 3.098-3.537 1.336-.851 2.878-1.277 4.63-1.277 2.284 0 4.137.618 5.56 1.858a7.355 7.355 0 0 1 2.018 2.855c.407 1.025-.343 2.137-1.441 2.137h-.023c-.627 0-1.208-.375-1.432-.96a4.843 4.843 0 0 0-1.414-2.028c-.86-.727-1.95-1.093-3.263-1.093-1.775 0-3.152.654-4.136 1.967-.984 1.313-1.478 3.038-1.478 5.175s.494 3.862 1.478 5.175c.984 1.314 2.361 1.968 4.136 1.968 1.314 0 2.407-.37 3.281-1.112.641-.54 1.107-1.226 1.409-2.06.22-.598.806-.983 1.442-.983a1.557 1.557 0 0 1 1.441 2.146 7.384 7.384 0 0 1-2.086 2.865c-1.497 1.276-3.322 1.912-5.487 1.912-1.757.01-3.299-.416-4.635-1.267ZM134.416 31.902c-1.336-.851-2.37-2.027-3.098-3.537-.727-1.506-1.093-3.208-1.093-5.102 0-1.895.366-3.597 1.093-5.102.728-1.506 1.762-2.686 3.098-3.537 1.336-.851 2.878-1.277 4.631-1.277 2.283 0 4.136.618 5.559 1.858a7.355 7.355 0 0 1 2.018 2.855c.407 1.025-.343 2.137-1.441 2.137h-.023c-.627 0-1.208-.375-1.432-.96-.312-.82-.783-1.497-1.414-2.028-.861-.727-1.95-1.093-3.263-1.093-1.775 0-3.152.654-4.136 1.967-.984 1.313-1.478 3.038-1.478 5.175s.494 3.862 1.478 5.175c.984 1.314 2.361 1.968 4.136 1.968 1.313 0 2.407-.37 3.281-1.112.641-.54 1.107-1.226 1.409-2.06.22-.598.806-.983 1.442-.983a1.558 1.558 0 0 1 1.441 2.146 7.376 7.376 0 0 1-2.087 2.865c-1.496 1.276-3.321 1.912-5.486 1.912-1.757.01-3.299-.416-4.635-1.267ZM107.799 6.498c.846 0 1.533.686 1.533 1.532v1.977a.21.21 0 0 1-.211.21h-1.29c-.865 0-1.56-.7-1.56-1.56V8.03a1.522 1.522 0 0 1 1.528-1.532Zm.032 7.289h1.29a.21.21 0 0 1 .211.21v18.536a.21.21 0 0 1-.211.21h-1.29c-.865 0-1.56-.7-1.56-1.56V15.348a1.556 1.556 0 0 1 1.56-1.56ZM126.541 6.498c.846 0 1.533.686 1.533 1.532v1.977a.21.21 0 0 1-.211.21h-1.29c-.865 0-1.56-.7-1.56-1.56V8.03c0-.85.686-1.532 1.528-1.532Zm.032 7.289h1.29a.21.21 0 0 1 .211.21v18.536a.21.21 0 0 1-.211.21h-1.29c-.865 0-1.56-.7-1.56-1.56V15.348c0-.86.7-1.56 1.56-1.56Z" fill="#384765"/><path d="M168.844 25.23h-12.176l-2.562 6.516c-.233.6-.81.988-1.455.988h-2.05a.21.21 0 0 1-.192-.288l10.204-24.983a1.56 1.56 0 0 1 1.446-.97h1.4a1.56 1.56 0 0 1 1.446.97l10.204 24.983a.21.21 0 0 1-.193.288h-2.05c-.64 0-1.217-.393-1.455-.988l-2.567-6.516Zm-1.166-2.915-4.919-12.5-4.919 12.5h9.838ZM178.357 6.498h.082c.865 0 1.561.7 1.561 1.56v24.47a.21.21 0 0 1-.211.211h-1.437c-.864 0-1.56-.7-1.56-1.56V8.058c0-.86.7-1.56 1.565-1.56Z" fill="#10997F"/><path d="M117.847 10.016a3.653 3.653 0 0 0-.018.38v4.122h3.812a1.533 1.533 0 0 1 0 3.066h-3.812v15.164h-1.501c-.865 0-1.56-.7-1.56-1.56V17.575h-.819a1.533 1.533 0 1 1 0-3.066h.819v-4.502c0-1.958 1.011-3.83 2.796-4.644 1.208-.55 2.855-.582 4.077-.028.375.17.695.398.883.778a1.54 1.54 0 0 1-.183 1.624c-.49.618-1.204.627-1.908.421-.678-.2-1.355-.26-1.908.252-.444.412-.623 1.025-.678 1.606ZM85.671 18.037c-.554-1.83-1.945-3.354-3.761-4.109-2.32-.96-5.184-.837-7.376.403l-.096.055c-.421.247-.81.544-1.172.865-.846.75-.576 2.141.472 2.567a1.541 1.541 0 0 0 1.66-.334c.573-.554 1.245-.934 2.105-1.149 2.55-.636 4.32.97 4.791 1.753.32.54.54 1.336.366 1.958-.091.339-.316.586-.622.75-.632.34-2.022.348-2.727.417-1.853.174-3.757.155-5.564.654-2.156.595-3.88 2.306-4.228 4.512-.417 2.63 1.134 4.983 3.468 6.067 1.551.723 3.4 1.034 5.047.577 3.084-.856 4.58-3.03 4.608-3.075l-.005 1.199a1.56 1.56 0 0 0 1.56 1.565h1.46a.208.208 0 0 0 .21-.202c.024-1.597.17-12.14.042-13.352a6.966 6.966 0 0 0-.238-1.12Zm-3.706 9.834c-.705 1.075-1.771 1.857-3.12 2.246-2.22.64-6.192-.146-5.862-3.18.37-3.423 5.65-2.896 8.048-3.18.655-.078 1.327-.179 1.94-.43l.042.009c.022.041.04.064.045.11.101.723-.1 1.606-.242 2.32a5.923 5.923 0 0 1-.851 2.105Z" fill="#384765"/></g><defs><clipPath id="a"><path fill="#fff" d="M0 0h180v38.175H0z"/></clipPath></defs></svg>